<svg fill="none" height="32" viewBox="0 0 231 32" width="231" xmlns="http://www.w3.org/2000/svg"><g fill="#808184"><path d="m127.328 12.7245v-3.89841l-1.333 2.84021h-.648l-1.362-2.84021v3.89841h-.878v-5.8311h.878l1.686 3.6265 1.657-3.6265h.874v5.8311z"/><path d="m129.706 12.7245v-5.8311h3.693v.79733h-2.815v1.70121h2.404v.78626h-2.404v1.7527h2.815v.7936z"/><path d="m138.825 12.7245v-3.89841l-1.332 2.84021h-.649l-1.362-2.84021v3.89841h-.877v-5.8311h.877l1.686 3.6265 1.657-3.6265h.878v5.8311z"/><path d="m143.542 12.7245h-2.335v-5.8311h2.247c1.071 0 1.745.61729 1.745 1.59833.006.26052-.065.51695-.204.73675s-.339.39307-.576.49782c.264.10838.488.2966.641.5388s.229.5263.215.8133c0 1.0729-.71 1.6461-1.733 1.6461zm-.161-5.03377h-1.3v1.66814h1.3c.561 0 .94-.29395.94-.83407 0-.54013-.379-.83407-.94-.83407zm.073 2.46177h-1.38v1.7784h1.38c.123.0132.246-.0002.363-.0395s.224-.1034.314-.1881c.091-.0846.162-.1879.209-.3026.047-.1148.069-.2385.065-.3627.004-.1237-.019-.2468-.066-.361-.048-.1142-.119-.2168-.209-.3008-.09-.0839-.197-.1474-.314-.186-.116-.0386-.24-.0514-.362-.0377z"/><path d="m146.59 12.7245v-5.8311h3.693v.79733h-2.823v1.70121h2.4v.78626h-2.4v1.7527h2.815v.7936z"/><path d="m154.675 12.7245-1.217-2.4581h-1.092v2.4581h-.878v-5.8311h2.24c1.092 0 1.795.71282 1.795 1.70488.017.35242-.088.69973-.297.98302-.208.28328-.507.4851-.846.5712l1.333 2.572zm-1.024-5.03377h-1.3v1.83715h1.3c.126.01487.253.00226.373-.03695s.23-.1041.323-.19025.167-.19153.216-.30894.072-.2441.068-.37141c.007-.12896-.015-.25782-.062-.37764-.048-.11982-.121-.22771-.214-.31618-.094-.08847-.205-.15539-.326-.19611-.122-.04071-.251-.05425-.378-.03967z"/><path d="m162.144 12.1513c-.408.3985-.953.6213-1.521.6213-.567 0-1.112-.2228-1.52-.6213-.568-.5731-.561-1.2198-.561-2.34049 0-1.12067 0-1.77102.561-2.34421.408-.39845.953-.62125 1.52-.62125.568 0 1.113.2228 1.521.62125.568.57319.554 1.21987.554 2.34421 0 1.12429.014 1.76739-.554 2.34049zm-.663-4.15193c-.113-.11431-.247-.20501-.395-.2669s-.306-.09374-.466-.09374-.319.03185-.466.09374c-.148.06189-.282.15259-.395.2669-.285.31232-.339.63933-.339 1.81144 0 1.17209.054 1.49909.339 1.80779.113.1143.247.205.395.2669.147.0619.306.0937.466.0937s.318-.0318.466-.0937.282-.1526.395-.2669c.281-.3087.339-.6394.339-1.80779 0-1.16843-.058-1.49545-.339-1.81144z"/><path d="m164.875 7.69073v1.77469h2.4v.79368h-2.4v2.4654h-.877v-5.8311h3.692v.79733z"/><path d="m125.722 25.4267c-.359.0025-.714-.067-1.046-.2045s-.634-.3403-.888-.5965c-.728-.7349-.728-1.569-.728-3.013s0-2.2744.728-3.0129c.256-.258.561-.4615.896-.5984.336-.137.695-.2046 1.056-.1989 1.37 0 2.393.8083 2.655 2.3037h-1.151c-.048-.2788-.172-.5389-.357-.752-.185-.213-.424-.3709-.692-.4565-.267-.0855-.553-.0955-.826-.0289-.272.0667-.522.2075-.721.4071-.364.4005-.452.8303-.452 2.3368s.084 1.9401.452 2.3369c.14.1487.31.2662.498.3446.188.0785.391.1163.594.111.364.007.719-.1196.997-.356.279-.2365.463-.567.518-.93h1.14c-.071.6553-.387 1.2586-.884 1.6872-.496.4286-1.136.6504-1.789.6203z"/><path d="m134.044 25.3642-.514-1.5065h-2.931l-.514 1.5065h-1.198l2.724-7.4956h.918l2.724 7.4992zm-1.952-5.8054-1.158 3.3289h2.283z"/><path d="m138.596 25.4266c-.362.0059-.722-.0621-1.057-.1997s-.64-.3421-.895-.6013c-.728-.7348-.728-1.5689-.728-3.0129s0-2.2744.728-3.0129c.255-.2587.56-.4626.895-.5996.336-.137.695-.2043 1.057-.1978 1.366 0 2.389.8084 2.651 2.3038h-1.151c-.048-.2789-.172-.5389-.357-.752-.185-.213-.424-.3709-.692-.4565-.267-.0855-.553-.0955-.826-.0289-.273.0667-.522.2074-.721.407-.364.4005-.452.8304-.452 2.3369s.084 1.94.452 2.3369c.14.1487.31.2661.498.3446s.391.1163.594.111c.364.006.717-.1209.995-.3573s.461-.5663.517-.9287h1.14c-.071.651-.383 1.251-.874 1.6791-.492.4281-1.125.6526-1.774.6283z"/><path d="m149.398 25.3642v-3.2775h-3.03v3.2775h-1.129v-7.4956h1.129v3.1966h3.015v-3.1966h1.129v7.4956z"/><path d="m156.831 24.6256c-.525.5134-1.227.8005-1.958.8005s-1.433-.2871-1.957-.8005c-.729-.7348-.729-1.5689-.729-3.0129s0-2.2744.729-3.0129c.525-.5117 1.227-.7976 1.957-.7976s1.432.2859 1.958.7976c.728.7348.71 1.5689.71 3.0129s.022 2.2744-.71 3.0129zm-.856-5.3387c-.294-.2962-.692-.4626-1.107-.4626-.416 0-.814.1664-1.108.4626-.364.4005-.437.8193-.437 2.3258s.073 1.929.437 2.3295c.294.2962.692.4626 1.108.4626.415 0 .813-.1664 1.107-.4626.364-.4005.437-.823.437-2.3295s-.073-1.907-.437-2.3258z"/><path d="m159.209 25.3642v-7.4956h1.129v6.4741h3.58v1.0215z"/><path d="m169.733 24.6587c-.258.2399-.561.4258-.891.5469s-.681.175-1.031.1586h-2.608v-7.4956h2.608c.35-.0164.701.0375 1.031.1586s.633.307.891.5469c.802.812.751 1.9069.751 2.9908 0 1.084.051 2.2818-.751 3.0938zm-.786-5.2689c-.162-.1714-.359-.3052-.577-.3921-.218-.087-.453-.1249-.687-.1113h-1.369v5.4563h1.369c.235.0139.469-.0243.688-.1119.218-.0876.415-.2225.576-.3951.386-.4336.393-1.2419.393-2.2744s.007-1.738-.393-2.1715z"/><path d="m172.155 25.3642v-7.4956h1.126v7.4956z"/><path d="m179.785 25.3642-3.434-5.291v5.291h-1.129v-7.4956h1.034l3.434 5.2653v-5.2653h1.125v7.4956z"/><path d="m187.207 24.5742c-.527.5391-1.243.847-1.993.8566s-1.473-.2797-2.013-.8051c-.729-.7349-.729-1.569-.729-3.013s0-2.2744.729-3.0129c.254-.2601.559-.4649.894-.602.336-.1371.696-.2036 1.058-.1954.658-.0285 1.303.1955 1.804.627.502.4315.822 1.0385.898 1.6989h-1.136c-.056-.3741-.246-.7143-.535-.9551s-.657-.3652-1.031-.3493c-.204-.0028-.406.0369-.594.1165-.188.0797-.358.1976-.499.3465-.364.4005-.448.8193-.448 2.3258s.084 1.9401.448 2.3369c.142.1477.311.2643.499.3427s.39.1169.594.1129c.227.0058.453-.0386.662-.13s.396-.2276.547-.3991c.265-.3325.395-.754.364-1.1795v-.4188h-1.588v-.9701h2.746v1.1464c0 .9701-.189 1.591-.677 2.1201z"/><path d="m191.526 25.4267c-1.118 0-1.923-.2646-2.633-.9921l.754-.7349c.246.2448.541.4342.865.5558.323.1216.669.1726 1.014.1497.972 0 1.537-.4226 1.537-1.1501.009-.1436-.013-.2874-.064-.4218s-.129-.2562-.231-.3571c-.226-.1985-.513-.3104-.812-.316l-.878-.1249c-.519-.0495-1.011-.2585-1.409-.599-.186-.1867-.33-.4109-.424-.6579-.093-.2469-.134-.5111-.119-.775 0-1.3081.94-2.2046 2.484-2.2046.422-.025.845.0377 1.242.1844.397.1466.76.374 1.067.668l-.729.7349c-.216-.2019-.471-.3574-.749-.4572-.278-.0997-.573-.1417-.868-.1234-.877 0-1.358.5071-1.358 1.1685-.006.1293.016.2585.064.3785.048.1199.122.2278.216.3159.24.1994.53.3268.838.3674l.845.125c.508.0376.993.2326 1.387.5585.206.1968.367.4365.471.7024.105.2659.15.5516.134.8371.007 1.3448-1.107 2.1679-2.644 2.1679z"/><path d="m202.644 24.5742c-.526.5391-1.242.847-1.992.8566s-1.474-.2797-2.014-.8052c-.728-.7348-.728-1.5689-.728-3.0129s0-2.2744.728-3.0129c.255-.2597.56-.4643.895-.6014.336-.1371.696-.2038 1.057-.196.659-.0277 1.304.1965 1.805.6277.502.4313.824 1.0378.901 1.6982h-1.14c-.055-.3741-.246-.7143-.535-.9551s-.656-.3652-1.031-.3493c-.203-.0024-.405.0375-.593.1171-.188.0797-.358.1974-.499.3459-.364.4005-.448.8193-.448 2.3258s.084 1.94.448 2.3369c.141.1475.311.264.499.3424s.39.1169.593.1132c.228.0053.455-.0392.664-.1306.21-.0913.397-.2273.549-.3985.264-.3332.394-.7542.364-1.1795v-.4188h-1.587v-.9701h2.713v1.1464c.018.97-.157 1.591-.649 2.1201z"/><path d="m209.076 25.3642-1.566-3.1599h-1.417v3.1599h-1.129v-7.4956h2.881c1.409 0 2.309.9149 2.309 2.2046.017.4532-.12.8987-.39 1.2614-.27.3628-.656.6206-1.092.73l1.711 3.3069zm-1.308-6.4778h-1.675v2.3478h1.668c.754 0 1.264-.4335 1.264-1.1684 0-.7348-.503-1.1794-1.257-1.1794z"/><path d="m216.174 24.6256c-.257.2603-.563.4655-.9.6032-.338.1376-.699.2049-1.063.1978-.362.0076-.722-.0596-1.058-.1973s-.64-.3432-.894-.6037c-.728-.7348-.728-1.5689-.728-3.0129s0-2.2744.728-3.0129c.254-.2601.559-.4649.894-.602.336-.1371.696-.2036 1.058-.1954.364-.0073.725.0599 1.063.1976.337.1377.643.3429.9.6034.728.7349.706 1.569.706 3.013s.022 2.2707-.706 3.0092zm-.856-5.3388c-.294-.2961-.692-.4625-1.107-.4625s-.814.1664-1.107.4625c-.364.4005-.441.8194-.441 2.3259s.077 1.929.441 2.3295c.293.2962.692.4626 1.107.4626s.813-.1664 1.107-.4626c.364-.4005.437-.823.437-2.3295s-.073-1.907-.437-2.3259z"/><path d="m221.098 25.4266c-1.512 0-2.663-1.0435-2.663-2.572v-4.986h1.133v4.9125c0 1.0031.604 1.6241 1.533 1.6241.212.0108.423-.0242.62-.1029.197-.0786.374-.199.521-.353s.259-.338.329-.5395.097-.4159.078-.6287v-4.9125h1.125v4.9676c-.003 1.5469-1.162 2.5904-2.676 2.5904z"/><path d="m228.418 22.4137h-1.694v2.9395h-1.125v-7.4846h2.819c1.456 0 2.378.97 2.378 2.2744s-.929 2.2707-2.378 2.2707zm-.066-3.5273h-1.628v2.4948h1.628c.783 0 1.318-.4519 1.318-1.2419.008-.1733-.021-.3463-.086-.5071s-.163-.3056-.288-.4245c-.125-.119-.274-.2093-.437-.2647-.163-.0555-.336-.0748-.507-.0566z"/><path d="m116.188 6.84563h-.397v18.58097h.397z"/></g><path d="m109.53 0h-109.53v32h109.53z" fill="#6200c0"/><path d="m56.4145 13.8272v11.31h1.8238v-11.31c0-3.4314 1.8576-5.14713 5.0099-5.14713v-1.82857c-3.5238 0-6.8337 1.82857-6.8337 6.9757z" fill="#fff"/><path d="m25.5335 6.8515c-2.4092 0-4.7059.84656-5.9218 3.01376-1.2271-2.1672-3.5238-3.01376-5.9217-3.01376-1.9027 0-3.73773.53051-5.02116 1.81728l-1.83507-1.81728v6.8515.1129 11.31h1.82381v-11.2987c0-3.4314 1.85762-5.14713 5.00982-5.14713 3.1523 0 5.0099 1.71573 5.0099 5.14713v11.31h1.8238v-11.31c0-3.4314 1.8576-5.14713 5.0099-5.14713 3.1522 0 5.0098 1.71573 5.0098 5.14713v11.31h1.8464v-11.31c0-5.14713-3.2987-6.9757-6.8337-6.9757z" fill="#fff"/><path d="m37.6136 6.8515h-1.8238v18.2857h1.8238z" fill="#fff"/><path d="m85.5954 6.8515h-1.8238v18.2857h1.8238z" fill="#fff"/><path d="m95.8854 25.1372c-2.9609 0-5.145-.8127-6.8675-2.5509l1.2384-1.2981c1.3397 1.4787 3.141 2.1898 5.5728 2.1898 3.3099 0 5.1109-1.2191 5.1109-3.6233 0-1.8512-1.0242-2.7767-3.2421-2.9912l-2.8145-.2596c-3.4225-.2935-5.1112-1.885-5.1112-4.6617 0-3.07023 2.398-5.06812 6.1019-5.06812 2.3305 0 4.4809.69983 5.9559 1.88501l-1.194 1.25291c-1.3056-1.00458-2.893-1.52381-4.7619-1.52381-2.7807 0-4.3343 1.2642-4.3343 3.44271 0 1.8511 1.0582 2.7767 3.4562 3.0024l2.747.2597c2.815.2596 4.976 1.1851 4.976 4.6617-.034 3.2508-2.668 5.2825-6.8336 5.2825z" fill="#fff"/><path d="m80.3493 13.6014c-.1013-4.96647-3.3549-6.73861-6.8336-6.73861h-.4841c-2.9609 0-4.841 1.12875-5.7754 2.83316l1.3509 1.17385c1.0245-1.72694 2.4205-2.17844 4.4245-2.17844h.4841c3.1522 0 5.0098 1.71574 5.0098 5.14714v1.2529h-5.6966c-3.9403 0-6.1019 1.5689-6.1469 5.0229.0563 3.4652 2.6569 5.0229 6.1469 5.0229h.7993v-.0113c1.8576-.0225 3.6477-.5531 4.9086-1.8173l1.8125 1.8173v-3.8829-2.5171-.5756-4.3231zm-6.8336 9.7072h-.6755c-2.2516 0-4.2781-.553-4.3344-3.1943.045-2.6413 1.8576-3.1944 4.3344-3.1944h5.6853v1.2529c0 3.4201-1.8576 5.1358-5.0098 5.1358z" fill="#fff"/><path d="m46.9574 10.5087v14.6285h1.8239c0-3.0815 0-9.8088 0-12.8z" fill="#fff"/><path d="m54.7144 6.8515h-13.6785v1.82857h13.6785z" fill="#fff"/></svg>