<svg xmlns="http://www.w3.org/2000/svg" viewBox="0 0 427 93">
<title>Acclime</title>

<!-- Logo + text -->
<path d="M51.71,6.82a4.89,4.89,0,0,0-2.8-2.62,7.17,7.17,0,0,0-5.46,0,4.88,4.88,0,0,0-2.81,2.64L3.78,83.66a3.68,3.68,0,0,0-.22,3h0a4,4,0,0,0,2.05,2.22,3.4,3.4,0,0,0,3,.14,4.46,4.46,0,0,0,2.12-2l12-24.85H69.61l12,24.89a4.39,4.39,0,0,0,2.1,1.94,3.13,3.13,0,0,0,1.33.29,3.68,3.68,0,0,0,1.68-.43,4,4,0,0,0,2.06-2.22,3.73,3.73,0,0,0-.22-3ZM66,54.72H26.34L46.18,13.64Z" fill="white"></path>

<path d="M108.36,36.34..." fill="white"></path>
<path d="M161.54,36.34..." fill="white"></path>
<path d="M241.33,61.2..." fill="white"></path>
<path d="M261.26,24.58..." fill="white"></path>
<path d="M329,24.58..." fill="white"></path>
<path d="M390,61.2..." fill="white"></path>

<!-- Orange dot -->
<path d="M422,79.54a5.54,5.54,0,0,0-4.08-1.65,5.4,5.4,0,0,0-4,1.66,5.7,5.7,0,0,0-1.58,4.08,5.44,5.44,0,0,0,5.62,5.61A5.66,5.66,0,0,0,422,87.66a5.35,5.35,0,0,0,1.67-4A5.57,5.57,0,0,0,422,79.54Z" fill="#F15A24"></path>

</svg>