<svg width="108" height="152" viewBox="0 0 108 152" fill="none" xmlns="http://www.w3.org/2000/svg">
<path d="M33.075 108.189L35.2881 105.971L41.3995 99.8568L44.7607 96.4914L50.119 91.2538L36.5233 77.6463L35.2881 78.882L31.2332 82.9416L27.862 86.3145L19.545 94.648L0.00439453 114.197L36.862 151.08L36.8138 122.854L27.6222 113.653L33.075 108.189Z" fill="white"/>
<path d="M107.995 114.748L100.075 122.635L71.4302 151.188L71.4208 123.427L79.9838 114.887L80.6724 114.205L73.0861 106.644L63.7136 97.2937L54.7981 88.6262L1.60278 35.5986L7.18394 30.039L14.9976 22.2587L32.148 5.15304L36.5146 0.811462V28.574L28.9195 36.1362L107.995 114.748Z" fill="white"/>
<path d="M92.2041 23.2211L74.8678 5.86107L70.4567 1.45306V29.6404L78.1226 37.3136L73.791 41.6589L60.9822 54.4769L57.4607 57.9124L71.0395 71.5023L87.2484 55.2795L105.744 36.7691L92.2041 23.2211Z" fill="white"/>
</svg>
