<svg width="102" height="45" viewBox="0 0 102 45" fill="none" xmlns="http://www.w3.org/2000/svg">
<path d="M9.72042 31.8644L10.3709 31.213L12.1672 29.4172L13.1552 28.4288L14.7301 26.8905L10.734 22.8939L10.3709 23.2568L9.17906 24.4492L8.18816 25.4398L5.74356 27.8874L0 33.6291L10.8335 44.4616L10.8193 36.1715L8.11768 33.4694L9.72042 31.8644Z" fill="black"></path>
<path d="M31.7416 33.791L29.4135 36.1074L20.994 44.4936L20.9913 36.3399L23.5082 33.8319L23.7106 33.6315L21.4807 31.4108L18.7259 28.6645L16.1054 26.1189L0.469727 10.5445L2.11019 8.91156L4.40684 6.62647L9.44785 1.60247L10.7313 0.327332V8.4813L8.4989 10.7024L31.7416 33.791Z" fill="black"></path>
<path d="M27.0998 6.90911L22.0041 1.81039L20.7076 0.515747V8.79449L22.9608 11.0481L21.6876 12.3244L17.9228 16.089L16.8877 17.0981L20.8789 21.0895L25.6432 16.3248L31.0796 10.8882L27.0998 6.90911Z" fill="black"></path>
<mask id="mask0_1686_3128" style="mask-type:alpha" maskUnits="userSpaceOnUse" x="37" y="11" width="66" height="22">
<rect x="37.7417" y="11.9105" width="64.5" height="21" fill="#D9D9D9"></rect>
</mask>
<g mask="url(#mask0_1686_3128)">
<path d="M50.025 13.768L45.9084 19.6154L41.8188 13.7678C41.678 13.5645 41.4898 13.3986 41.2705 13.2845C41.0512 13.1703 40.8074 13.1114 40.5601 13.1127C39.6158 13.1127 39.0393 13.9254 39.0393 14.7121C39.0385 15.0083 39.1405 15.2957 39.3278 15.5251L44.0466 22.2901L39.3276 29.0555C39.1384 29.3141 39.0372 29.6267 39.0391 29.9472C39.0483 30.3476 39.2115 30.7291 39.4947 31.0122C39.778 31.2954 40.1595 31.4584 40.5599 31.4674C40.8072 31.4687 41.051 31.4097 41.2703 31.2956C41.4896 31.1814 41.6778 31.0155 41.8186 30.8123L45.9084 24.9647L50.0248 30.8119C50.1653 31.0153 50.3534 31.1814 50.5727 31.2956C50.792 31.4097 51.0358 31.4686 51.2831 31.467C51.6819 31.4535 52.0608 31.289 52.3431 31.0068C52.6254 30.7246 52.79 30.3457 52.8037 29.9468C52.7965 29.6278 52.6964 29.318 52.5156 29.0552L47.7966 22.2901L52.5157 15.5255C52.7 15.2645 52.8005 14.9536 52.8039 14.6341C52.7949 14.2335 52.6318 13.8519 52.3486 13.5686C52.0653 13.2853 51.6837 13.1221 51.2832 13.1131C51.036 13.1115 50.7921 13.1703 50.5728 13.2845C50.3535 13.3987 50.1654 13.5647 50.025 13.7682" fill="black"></path>
<path d="M66.6716 13.7682L62.5549 19.6157L58.4652 13.7682C58.3245 13.5647 58.1363 13.3987 57.9168 13.2845C57.6974 13.1703 57.4534 13.1115 57.206 13.1131C56.2628 13.1131 55.6855 13.9257 55.6855 14.7125C55.6852 15.0086 55.7871 15.2958 55.9739 15.5255L61.0342 22.7623V29.9471C61.0342 30.3539 61.1958 30.7439 61.4833 31.0315C61.7709 31.3191 62.1609 31.4807 62.5676 31.4807C62.9743 31.4807 63.3643 31.3191 63.6519 31.0315C63.9394 30.7439 64.101 30.3539 64.101 29.9471V22.7623L69.1613 15.5255C69.3457 15.2645 69.4463 14.9536 69.4496 14.6341C69.448 14.3909 69.3875 14.1517 69.2734 13.937C69.1592 13.7222 68.9947 13.5384 68.794 13.4011C68.5411 13.2204 68.2398 13.12 67.9291 13.1127C67.682 13.1113 67.4382 13.1702 67.2189 13.2844C66.9997 13.3985 66.8116 13.5645 66.6711 13.7678" fill="black"></path>
<path d="M72.333 14.6346V29.9475C72.3339 30.1492 72.3748 30.3487 72.4533 30.5346C72.5317 30.7204 72.6462 30.8888 72.7901 31.0302C72.934 31.1715 73.1045 31.283 73.2916 31.3581C73.4788 31.4332 73.6791 31.4705 73.8807 31.4678H80.7493C81.1561 31.4678 81.5461 31.3062 81.8337 31.0186C82.1213 30.7309 82.2829 30.3408 82.2829 29.9341C82.2829 29.5273 82.1213 29.1372 81.8337 28.8496C81.5461 28.5619 81.1561 28.4004 80.7493 28.4004H75.4009V14.6346C75.4009 14.2277 75.2392 13.8375 74.9516 13.5498C74.6639 13.2621 74.2738 13.1005 73.8669 13.1005C73.4601 13.1005 73.07 13.2621 72.7823 13.5498C72.4946 13.8375 72.333 14.2277 72.333 14.6346Z" fill="black"></path>
<path d="M86.149 22.2902C86.149 18.9078 88.7186 16.1804 91.8654 16.1804C95.0379 16.1804 97.6065 18.9072 97.6065 22.2902C97.6065 25.6732 95.0375 28.4 91.8654 28.4C88.7188 28.4 86.149 25.6734 86.149 22.2902ZM83.0817 22.2902C83.0817 27.351 87.0141 31.4676 91.8654 31.4676C96.7166 31.4676 100.674 27.351 100.674 22.2902C100.674 17.2294 96.7155 13.1134 91.8652 13.1134C87.0148 13.1134 83.0815 17.2294 83.0815 22.2902" fill="black"></path>
</g>
</svg>